<svg height="auto" width="auto" viewBox="0 0 55 13" fill="none" xmlns="http://www.w3.org/2000/svg">
<path d="M7.30043 3.71023C7.25497 3.25189 7.0599 2.89583 6.7152 2.64205C6.3705 2.38826 5.9027 2.26136 5.31179 2.26136C4.91027 2.26136 4.57126 2.31818 4.29474 2.43182C4.01823 2.54167 3.80611 2.69508 3.65838 2.89205C3.51444 3.08902 3.44247 3.3125 3.44247 3.5625C3.4349 3.77083 3.47846 3.95265 3.57315 4.10795C3.67164 4.26326 3.80611 4.39773 3.97656 4.51136C4.14702 4.62121 4.34399 4.7178 4.56747 4.80114C4.79096 4.88068 5.02959 4.94886 5.28338 5.00568L6.32884 5.25568C6.83641 5.36932 7.30232 5.52083 7.72656 5.71023C8.15081 5.89962 8.51823 6.13258 8.82884 6.40909C9.13944 6.68561 9.37997 7.01136 9.55043 7.38636C9.72467 7.76136 9.81368 8.19129 9.81747 8.67614C9.81368 9.38826 9.63187 10.0057 9.27202 10.5284C8.91596 11.0473 8.40081 11.4508 7.72656 11.7386C7.05611 12.0227 6.2474 12.1648 5.30043 12.1648C4.36103 12.1648 3.54285 12.0208 2.84588 11.733C2.1527 11.4451 1.61103 11.0189 1.22088 10.4545C0.834517 9.88636 0.631866 9.18371 0.612926 8.34659H2.99361C3.02012 8.73674 3.13187 9.0625 3.32884 9.32386C3.52959 9.58144 3.79664 9.77652 4.12997 9.90909C4.46709 10.0379 4.84777 10.1023 5.27202 10.1023C5.68868 10.1023 6.05043 10.0417 6.35724 9.92045C6.66785 9.79924 6.90838 9.63068 7.07884 9.41477C7.24929 9.19886 7.33452 8.95076 7.33452 8.67045C7.33452 8.40909 7.25687 8.18939 7.10156 8.01136C6.95005 7.83333 6.72656 7.68182 6.43111 7.55682C6.13944 7.43182 5.78149 7.31818 5.35724 7.21591L4.0902 6.89773C3.10914 6.65909 2.33452 6.28598 1.76634 5.77841C1.19815 5.27083 0.915956 4.58712 0.919744 3.72727C0.915956 3.02273 1.10346 2.4072 1.48224 1.88068C1.86482 1.35417 2.38944 0.943182 3.05611 0.647727C3.72277 0.352272 4.48035 0.204545 5.32884 0.204545C6.19247 0.204545 6.94626 0.352272 7.5902 0.647727C8.23793 0.943182 8.74171 1.35417 9.10156 1.88068C9.46141 2.4072 9.64702 3.01705 9.65838 3.71023H7.30043ZM21.2053 0.363636V12H19.0803L14.0178 4.67614H13.9325V12H11.4723V0.363636H13.6314L18.6541 7.68182H18.7564V0.363636H21.2053ZM25.2436 12H22.6072L26.6243 0.363636H29.7947L33.8061 12H31.1697L28.255 3.02273H28.1641L25.2436 12ZM25.0788 7.42614H31.3061V9.34659H25.0788V7.42614ZM35.2067 12V0.363636H37.6669V5.49432H37.8203L42.0078 0.363636H44.9567L40.6385 5.57386L45.0078 12H42.0646L38.8771 7.21591L37.6669 8.69318V12H35.2067ZM46.2379 12V0.363636H54.0788V2.39205H48.6982V5.16477H53.6754V7.19318H48.6982V9.97159H54.1016V12H46.2379Z" fill="#E35634"/>
</svg>
