<svg width="80%" preserveAspectRatio="xMidYMid meet" viewBox="-25 -8 200 50" fill="none" xmlns="http://www.w3.org/2000/svg">
<path d="M20.4013 11.1307C20.2649 9.75568 19.6797 8.6875 18.6456 7.92614C17.6115 7.16477 16.2081 6.78409 14.4354 6.78409C13.2308 6.78409 12.2138 6.95454 11.3842 7.29545C10.5547 7.625 9.91832 8.08523 9.47514 8.67614C9.04332 9.26705 8.82742 9.9375 8.82742 10.6875C8.80469 11.3125 8.93537 11.858 9.21946 12.3239C9.51491 12.7898 9.91832 13.1932 10.4297 13.5341C10.9411 13.8636 11.532 14.1534 12.2024 14.4034C12.8729 14.642 13.5888 14.8466 14.3501 15.017L17.4865 15.767C19.0092 16.108 20.407 16.5625 21.6797 17.1307C22.9524 17.6989 24.0547 18.3977 24.9865 19.2273C25.9183 20.0568 26.6399 21.0341 27.1513 22.1591C27.674 23.2841 27.9411 24.5739 27.9524 26.0284C27.9411 28.1648 27.3956 30.017 26.3161 31.5852C25.2479 33.142 23.7024 34.3523 21.6797 35.2159C19.6683 36.0682 17.2422 36.4943 14.4013 36.4943C11.5831 36.4943 9.12855 36.0625 7.03764 35.1989C4.9581 34.3352 3.3331 33.0568 2.16264 31.3636C1.00355 29.6591 0.395597 27.5511 0.338778 25.0398H7.48082C7.56037 26.2102 7.8956 27.1875 8.48651 27.9716C9.08878 28.7443 9.88991 29.3295 10.8899 29.7273C11.9013 30.1136 13.0433 30.3068 14.3161 30.3068C15.5661 30.3068 16.6513 30.125 17.5717 29.7614C18.5036 29.3977 19.2251 28.892 19.7365 28.2443C20.2479 27.5966 20.5036 26.8523 20.5036 26.0114C20.5036 25.2273 20.2706 24.5682 19.8047 24.0341C19.3501 23.5 18.6797 23.0455 17.7933 22.6705C16.9183 22.2955 15.8445 21.9545 14.5717 21.6477L10.7706 20.6932C7.82741 19.9773 5.50355 18.858 3.79901 17.3352C2.09446 15.8125 1.24787 13.7614 1.25923 11.1818C1.24787 9.06818 1.81037 7.22159 2.94673 5.64205C4.09446 4.0625 5.66832 2.82955 7.66832 1.94318C9.66832 1.05682 11.9411 0.613635 14.4865 0.613635C17.0774 0.613635 19.3388 1.05682 21.2706 1.94318C23.2138 2.82955 24.7251 4.0625 25.8047 5.64205C26.8842 7.22159 27.4411 9.05114 27.4751 11.1307H20.4013ZM62.1158 1.09091V36H55.7408L40.5533 14.0284H40.2976V36H32.9169V1.09091H39.3942L54.4624 23.0455H54.7692V1.09091H62.1158ZM74.2308 36H66.3217L78.3729 1.09091H87.8842L99.9183 36H92.0092L83.2649 9.06818H82.9922L74.2308 36ZM73.7365 22.2784H92.4183V28.0398H73.7365V22.2784ZM104.12 36V1.09091H111.501V16.483H111.961L124.523 1.09091H133.37L120.415 16.7216L133.523 36H124.694L115.131 21.6477L111.501 26.0795V36H104.12ZM137.214 36V1.09091H160.737V7.17614H144.594V15.4943H159.526V21.5795H144.594V29.9148H160.805V36H137.214Z" fill="#E35634"/>
</svg>
