<svg width="24" height="24" viewBox="0 0 24 24" fill="none" xmlns="http://www.w3.org/2000/svg">
<g clip-path="url(#clip0_11_170)">
<path d="M2.00101 9.352C2.00101 11.225 2.85001 12.295 3.68401 13.295C3.71501 14.295 3.76901 14.963 3.35101 16.478C5.09901 15.92 5.38901 15.7 6.35901 15.104C7.35901 15.348 7.83301 15.485 8.97001 15.595C8.87601 16.303 8.88901 16.87 9.02501 17.618C8.27301 17.558 7.49701 17.44 6.69501 17.244C5.29801 18.101 2.21401 18.969 0.0460143 19.359C0.857014 17.764 1.75401 15.574 1.70701 14.047C0.617014 12.742 0.00201432 11.063 0.00201432 9.352C0.00101432 4.526 4.72001 1 10.001 1C15.238 1 19.978 4.484 19.999 9.318C19.355 9.143 18.677 9.041 17.978 9.004C17.749 5.664 14.265 3 10.001 3C5.59001 3 2.00101 5.85 2.00101 9.352ZM22.884 19.521C22.855 20.522 23.442 21.956 23.972 23C22.553 22.742 20.534 22.176 19.62 21.615C18.848 21.803 18.106 21.889 17.407 21.889C13.542 21.889 10.909 19.246 10.909 16.447C10.909 13.273 14.019 10.98 17.455 10.98C20.912 10.98 24.001 13.289 24.001 16.447C24.001 17.567 23.598 18.668 22.884 19.521ZM15.321 16.5C15.321 16.047 14.953 15.68 14.501 15.68C14.049 15.68 13.681 16.047 13.681 16.5C13.681 16.953 14.049 17.32 14.501 17.32C14.953 17.32 15.321 16.953 15.321 16.5ZM18.321 16.5C18.321 16.047 17.953 15.68 17.501 15.68C17.049 15.68 16.681 16.047 16.681 16.5C16.681 16.953 17.049 17.32 17.501 17.32C17.953 17.32 18.321 16.953 18.321 16.5ZM21.321 16.5C21.321 16.047 20.953 15.68 20.501 15.68C20.049 15.68 19.681 16.047 19.681 16.5C19.681 16.953 20.049 17.32 20.501 17.32C20.953 17.32 21.321 16.953 21.321 16.5Z" fill="#756A61"/>
</g>
<defs>
<clipPath id="clip0_11_170">
<rect width="24" height="24" fill="white"/>
</clipPath>
</defs>
</svg>
